<svg width="27" height="31" viewBox="0 0 32 31" fill="none" xmlns="http://www.w3.org/2000/svg">
<path d="M16.4655 0.295117C7.75637 0.13239 0.520392 6.72752 0.335397 14.9966C0.150416 23.2651 7.08537 30.1256 15.7945 30.2884C24.5029 30.4511 31.7395 23.8553 31.9245 15.5869C32.1095 7.31775 25.1752 0.457855 16.4655 0.295117ZM20.0461 15.8931L17.4765 15.8451C17.3892 19.7431 17.2819 24.5412 17.2819 24.5412L13.4742 24.4701C13.4742 24.4701 13.5805 19.7185 13.6687 15.7739L11.8587 15.7401L11.9275 12.6666L13.7375 12.7004L13.782 10.7124C13.8138 9.28864 14.5761 7.07717 17.7063 7.13565L20.5277 7.19864L20.4609 10.1821C20.4609 10.1821 18.7463 10.1501 18.413 10.1439C18.0796 10.1376 17.6021 10.2871 17.5869 10.966L17.5465 12.7722L20.4476 12.8264L20.0461 15.8931Z" fill="#7A7474"/>
</svg>
