<svg width="27" height="31" viewBox="0 0 33 31" fill="none" xmlns="http://www.w3.org/2000/svg">
<path d="M32.036 9.63304C31.6909 4.4416 28.1827 0.614235 23.6871 0.530236C20.692 0.474274 17.9128 2.06896 16.3107 4.67806C14.8413 1.97743 12.2474 0.315871 9.30036 0.260806C4.80531 0.176818 1.12831 3.86993 0.551855 9.04415C0.510282 9.27239 0.333878 10.4744 0.744347 12.4477C1.33585 15.2939 2.79091 17.9 4.95116 19.9823L15.7282 30.3867L27.1506 20.3977C29.4022 18.3972 30.9726 15.8483 31.6909 13.0259C32.1892 11.0702 32.0668 9.86263 32.036 9.63304ZM30.5144 12.7197C29.8587 15.2968 28.4202 17.6291 26.3584 19.46L15.7729 28.7179L5.78824 19.0781C3.80647 17.1679 2.47407 14.7845 1.93356 12.1851C1.54503 10.3177 1.74532 9.27064 1.74608 9.26383L1.7566 9.20134C2.25307 4.66801 5.41363 1.4295 9.2726 1.50161C12.1201 1.55481 14.5867 3.3884 15.7119 6.28618L16.2411 7.65096L16.831 6.30708C18.065 3.49745 20.745 1.71658 23.6599 1.77105C27.5183 1.84314 30.532 5.19701 30.8318 9.80418C30.8328 9.81413 30.9861 10.8684 30.5144 12.7197Z" fill="#00AEF9"/>
</svg>
