<svg width="27" height="31" viewBox="0 0 33 31" fill="none" xmlns="http://www.w3.org/2000/svg">
<path d="M31.2185 2.38292C30.085 1.26144 28.702 0.685342 27.0706 0.654859L7.32723 0.285961C5.69582 0.255479 4.28823 0.779432 3.10504 1.85763C1.92207 2.93603 1.31314 4.24992 1.27848 5.79898L0.85911 24.5446C0.824458 26.0936 1.37411 27.4292 2.50787 28.5509C3.64184 29.6726 5.02482 30.2487 6.65622 30.2792L26.3994 30.6481C28.0308 30.6786 29.4384 30.1546 30.6211 29.0762C31.8043 27.9978 32.4132 26.6838 32.4478 25.1349L32.8672 6.3892C32.9018 4.84015 32.3521 3.5044 31.2185 2.38292ZM10.4672 25.4664L5.71649 25.3776L6.01967 11.826L10.7704 11.9148L10.4672 25.4664ZM10.3949 9.39776C9.89136 9.83768 9.23501 10.0501 8.42601 10.035L8.40526 10.0346C7.62385 10.02 6.99498 9.78356 6.51816 9.32532C6.04126 8.86708 5.81038 8.30608 5.82523 7.64218C5.84038 6.96529 6.10329 6.4101 6.61346 5.97673C7.124 5.54351 7.77667 5.33422 8.57177 5.34907C9.36695 5.36393 9.99956 5.59724 10.4696 6.04878C10.9395 6.50046 11.1739 7.06494 11.1723 7.74209C11.1574 8.40572 10.8985 8.95756 10.3949 9.39776ZM27.5575 25.7857L22.8067 25.697L22.9688 18.4527C23.0145 16.4092 22.2424 15.3722 20.6519 15.3425C20.0487 15.3312 19.5376 15.4812 19.1193 15.7925C18.7005 16.1036 18.3835 16.4851 18.1679 16.9373C18.0665 17.1695 18.0105 17.533 17.9995 18.0276L17.83 25.6039L13.0792 25.5151C13.3032 17.3409 13.4043 12.8235 13.3824 11.9635L18.1331 12.0522L18.0903 13.9655C19.1224 12.5013 20.5574 11.7848 22.3974 11.8192C24.0426 11.8499 25.3544 12.389 26.3322 13.4359C27.3101 14.4831 27.7765 16.0092 27.7316 18.0135L27.5578 25.7857L27.5575 25.7857Z" fill="#8A8585"/>
</svg>
