<svg width="30" height="30" viewBox="0 0 30 30" fill="none" xmlns="http://www.w3.org/2000/svg">
<path d="M15 27.5C16.375 27.5 17.5 26.375 17.5 25H12.5C12.5 26.375 13.625 27.5 15 27.5ZM22.5 20V13.75C22.5 9.9125 20.4625 6.7 16.875 5.85V5C16.875 3.9625 16.0375 3.125 15 3.125C13.9625 3.125 13.125 3.9625 13.125 5V5.85C9.55 6.7 7.5 9.9 7.5 13.75V20L5 22.5V23.75H25V22.5L22.5 20ZM20 21.25H10V13.75C10 10.65 11.8875 8.125 15 8.125C18.1125 8.125 20 10.65 20 13.75V21.25Z" fill="#8A8585"/>
<path d="M21.5 3C17.9108 3 15 5.91082 15 9.5C15 13.0892 17.9108 16 21.5 16C25.0892 16 28 13.0892 28 9.5C28 5.91082 25.0892 3 21.5 3Z" fill="#00AEF9"/>
</svg>
