<svg width="30" height="31" viewBox="0 0 27 31" fill="none" xmlns="http://www.w3.org/2000/svg">
<path d="M13.5 0.916748C6.25208 0.916748 0.375 6.79383 0.375 14.0417C0.375 20.123 4.51667 25.2272 10.1312 26.7147L13.5 30.0834L16.8688 26.7147C22.4833 25.2272 26.625 20.123 26.625 14.0417C26.625 6.79383 20.7479 0.916748 13.5 0.916748ZM13.5 3.83342C15.9208 3.83342 17.875 5.78758 17.875 8.20842C17.875 10.6292 15.9208 12.5834 13.5 12.5834C11.0792 12.5834 9.125 10.6292 9.125 8.20842C9.125 5.78758 11.0792 3.83342 13.5 3.83342ZM13.5 24.6876C9.85417 24.6876 6.63125 22.8209 4.75 19.9918C4.79375 17.0897 10.5833 15.5001 13.5 15.5001C16.4021 15.5001 22.2063 17.0897 22.25 19.9918C20.3688 22.8209 17.1458 24.6876 13.5 24.6876Z" fill="#00AEF9"/>
</svg>
